<?xml version="1.0" encoding="UTF-8"?>
<svg id="Layer_1" data-name="Layer 1" xmlns="http://www.w3.org/2000/svg" viewBox="0 0 432.26 102.76">
  <defs>
    <style>
      .cls-1 {
        fill: #fc0;
      }

      .cls-2 {
        fill: #039;
      }

      .cls-3 {
        fill: #fff;
      }

      .cls-4 {
        fill: #e92b29;
      }

      .cls-5 {
        fill: #bc9c4a;
      }

      .cls-6 {
        fill: #212120;
      }

      .cls-7 {
        fill: #31a749;
      }

      .cls-8 {
        fill: #ffcc05;
      }
    </style>
  </defs>
  <rect class="cls-1" x="127.31" y="24.67" width="1.26" height="60.4"/>
  <g>
    <g>
      <path class="cls-1" d="M193.06,92.2c-23.45,2.48-43.13-17.19-40.64-40.64,1.81-17.09,15.55-30.83,32.64-32.64,23.45-2.49,43.13,17.19,40.64,40.64-1.81,17.09-15.55,30.83-32.64,32.64Z"/>
      <path class="cls-2" d="M198.34,70c-12.98.19-22.34-13.2-12.99-24.14,8.23-8.8,14.77,1.53,8.67,5.63.46-.6.55-1.54.22-2.23-1.53,2.62-8.48,4.13-6.85,7.45-1.9.16-4.31,2.12-3,4.17,1.94-1.88,5.28-.86,7.88-.81,7.82.25,14.99-3.24,16.4-10.87.27-1.83,0-6.66-5.32-10.06-3.8-2.43-8.31-3.62-12.84-3.62-5.6,0-11.22,1.82-15.55,5.38-4.54,3.45-7.38,8.67-7.38,14.74.89,22.14,31.72,26.52,42.94,9.9-3.31,2.79-7.56,4.47-12.19,4.47ZM191.22,56.65c-.29.18-.64.28-.97.28h0c-.26,0-.52-.04-.76-.14,0-.01.01-.03.01-.04h0c.27-1.09,1.59-1.76,2.6-1.3-.12.49-.43.93-.89,1.2ZM206.53,44.29c.91,9.1-8.68,9.75-8.68,9.75,8.09-2.51,8.68-9.75,8.68-9.75ZM201.35,43.36c-.18-.88-.48-1.72-.88-2.48,4.58,4.62,1.5,13-5.02,13.3,4.23-1.48,6.89-6.33,5.9-10.82Z"/>
    </g>
    <g>
      <path class="cls-3" d="M239.05,70.71c-.81,0-1.41-.12-1.78-.37-.38-.25-.61-.57-.7-.98-.09-.41-.13-.85-.13-1.35v-25.07c0-.98.2-1.67.59-2.04.39-.38,1.11-.56,2.15-.56h16.95c.49,0,.93.05,1.33.15.39.1.7.33.93.7.23.36.35.96.35,1.8s-.12,1.41-.37,1.78c-.25.38-.56.61-.96.7-.39.09-.83.13-1.33.13h-14.38s0,7.3,0,7.3h9.91c.49,0,.91.05,1.26.15.35.1.62.31.83.63.2.32.3.85.3,1.61,0,.72-.1,1.25-.3,1.59-.2.33-.49.54-.87.61-.38.07-.81.11-1.3.11h-9.82s0,7.82,0,7.82h14.43c.49,0,.93.05,1.33.15.39.1.7.34.93.72.23.38.35.97.35,1.78s-.12,1.41-.37,1.78c-.25.38-.56.62-.96.72-.39.1-.83.15-1.33.15h-17.03Z"/>
      <path class="cls-3" d="M280.55,70.62c-.84,0-1.46-.16-1.87-.48-.41-.32-.61-.75-.61-1.3l.3-1.43c-.23.38-.62.82-1.17,1.33-.55.51-1.28.96-2.17,1.35-.9.39-1.98.59-3.26.59-1.36,0-2.64-.28-3.85-.85-1.2-.56-2.26-1.35-3.17-2.35-.91-1-1.64-2.14-2.17-3.43-.54-1.29-.8-2.67-.8-4.15,0-1.42.27-2.76.8-4.02.54-1.26,1.27-2.38,2.19-3.37.93-.98,1.99-1.76,3.19-2.32,1.2-.56,2.47-.85,3.8-.85,1.19,0,2.19.16,3.02.48.83.32,1.53.72,2.11,1.19.58.48,1.06.98,1.43,1.5l-.26-1.26c0-.64.2-1.12.61-1.46.41-.33,1.04-.5,1.91-.5.81,0,1.39.12,1.74.37.35.25.56.58.65,1,.09.42.13.89.13,1.41v15.9c0,.49-.04.94-.13,1.35-.09.41-.31.72-.67.96-.36.23-.95.35-1.76.35ZM272.55,65.58c.98,0,1.87-.25,2.65-.74.78-.49,1.41-1.17,1.89-2.02.48-.85.72-1.8.72-2.85,0-1.13-.25-2.11-.74-2.95-.49-.84-1.14-1.5-1.93-1.98-.8-.48-1.69-.72-2.67-.72-1.07,0-2.03.25-2.87.76-.84.51-1.5,1.19-1.98,2.04-.48.85-.72,1.82-.72,2.89,0,1.04.25,1.98.74,2.82.49.84,1.17,1.51,2.02,2,.85.49,1.82.74,2.89.74Z"/>
      <path class="cls-3" d="M296.32,70.15c-1.36,0-2.63-.26-3.8-.78-1.17-.52-2.2-1.26-3.09-2.22-.88-.96-1.58-2.06-2.09-3.32-.51-1.26-.76-2.63-.76-4.11s.25-2.8.76-4.04c.51-1.25,1.2-2.35,2.09-3.3.88-.96,1.91-1.7,3.09-2.24,1.17-.54,2.43-.8,3.76-.8,1.3,0,2.44.25,3.41.76.97.51,1.77,1.22,2.41,2.15.64.93,1.12,2.03,1.46,3.3.33,1.28.5,2.68.5,4.22,0,2.11-.29,3.95-.87,5.52-.58,1.56-1.43,2.77-2.56,3.61-1.13.84-2.56,1.26-4.3,1.26ZM296.8,79.4c-1.04,0-2.04-.12-3-.37-.96-.25-1.82-.57-2.59-.98-.77-.41-1.38-.84-1.83-1.3-.45-.46-.67-.9-.67-1.3s.07-.75.2-1.04c.13-.29.33-.58.59-.87.35-.35.63-.61.85-.78.22-.17.51-.26.89-.26.32,0,.63.12.93.35.3.23.66.49,1.06.78.41.29.9.55,1.48.78.58.23,1.32.35,2.22.35.75,0,1.45-.13,2.09-.39.64-.26,1.18-.64,1.63-1.15.45-.51.8-1.11,1.06-1.8.26-.7.39-1.48.39-2.35l-.04-17.99c.06-.67.29-1.14.7-1.41.41-.28,1.03-.41,1.87-.41.78,0,1.35.11,1.69.33.35.22.56.52.65.91.09.39.13.82.13,1.28v17.6c0,1.59-.28,3.01-.83,4.26-.55,1.25-1.3,2.3-2.26,3.15-.96.85-2.05,1.51-3.28,1.96-1.23.45-2.54.67-3.93.67ZM296.8,65.24c.98,0,1.86-.24,2.63-.72.77-.48,1.38-1.14,1.82-1.98.45-.84.67-1.78.67-2.82s-.22-2.02-.67-2.85c-.45-.83-1.06-1.47-1.85-1.93-.78-.46-1.67-.7-2.65-.7-.99,0-1.86.24-2.63.72-.77.48-1.37,1.12-1.8,1.93-.43.81-.65,1.75-.65,2.82,0,1.07.22,2.02.67,2.85.45.83,1.06,1.48,1.83,1.96.77.48,1.64.72,2.63.72Z"/>
      <path class="cls-3" d="M319.22,70.71c-1.07,0-2.02-.07-2.85-.22-.83-.15-1.54-.39-2.13-.74-.59-.35-1.08-.82-1.46-1.41-.38-.59-.66-1.33-.85-2.19-.19-.87-.28-1.91-.28-3.13v-20.94c0-.49.05-.93.15-1.33.1-.39.33-.71.7-.96.36-.25.95-.37,1.76-.37.81,0,1.4.12,1.76.35.36.23.59.54.7.93.1.39.15.83.15,1.33v20.77c0,.55.04,1.01.11,1.37.07.36.2.65.39.87.19.22.43.37.74.46.3.09.67.13,1.11.13.38,0,.72.04,1.02.13.3.09.55.3.74.65.19.35.28.91.28,1.69,0,.81-.09,1.41-.28,1.78-.19.38-.44.61-.76.7-.32.09-.65.13-1,.13Z"/>
      <path class="cls-3" d="M334.73,70.97c-1.88,0-3.53-.3-4.93-.91-1.41-.61-2.58-1.44-3.52-2.5-.94-1.06-1.65-2.24-2.13-3.56-.48-1.32-.72-2.69-.72-4.11,0-2.09.48-3.94,1.43-5.56.96-1.62,2.28-2.9,3.98-3.82,1.69-.93,3.64-1.39,5.84-1.39,1.56,0,2.94.25,4.13.74,1.19.49,2.18,1.14,2.98,1.93.8.8,1.4,1.67,1.83,2.63.42.96.63,1.88.63,2.78,0,1.54-.37,2.65-1.11,3.35-.74.7-1.66,1.04-2.76,1.04h-11.47c.03.98.34,1.84.93,2.56.59.72,1.35,1.28,2.26,1.67.91.39,1.85.59,2.8.59.72,0,1.37-.04,1.93-.13.56-.09,1.05-.2,1.46-.33.41-.13.76-.27,1.06-.41.3-.14.59-.27.85-.39.26-.12.51-.19.74-.22.32-.03.64.04.96.22.32.17.58.48.78.91.17.29.3.56.37.8.07.25.11.49.11.72,0,.58-.35,1.12-1.04,1.63-.7.51-1.67.93-2.93,1.26-1.26.33-2.74.5-4.45.5ZM328.91,58.5h8.91c.49,0,.87-.08,1.13-.24.26-.16.39-.5.39-1.02,0-.67-.2-1.27-.61-1.8-.41-.54-.96-.96-1.65-1.26-.7-.3-1.51-.46-2.43-.46-1.07,0-2.04.21-2.91.63-.87.42-1.56.99-2.06,1.72-.51.72-.76,1.54-.76,2.43Z"/>
      <path class="cls-3" d="M350.68,70.67c-.81,0-1.41-.12-1.78-.35-.38-.23-.61-.56-.7-.98-.09-.42-.13-.86-.13-1.33v-25.07c0-.46.05-.89.15-1.28.1-.39.34-.71.72-.96.38-.25.97-.37,1.78-.37h9.21c1.27,0,2.52.22,3.74.65,1.22.43,2.31,1.09,3.28,1.96.97.87,1.74,1.94,2.3,3.22.56,1.28.85,2.77.85,4.48,0,1.68-.28,3.15-.85,4.41-.56,1.26-1.34,2.32-2.32,3.19-.99.87-2.08,1.52-3.28,1.96-1.2.43-2.46.65-3.76.65h-6.56s0,7.21,0,7.21c0,.46-.05.9-.15,1.3-.1.41-.33.72-.7.96-.36.23-.96.35-1.8.35ZM353.33,55.55h6.6c.9,0,1.72-.18,2.46-.54.74-.36,1.34-.91,1.8-1.65.46-.74.7-1.67.7-2.8,0-1.01-.21-1.89-.63-2.63-.42-.74-1-1.31-1.74-1.72-.74-.41-1.62-.61-2.63-.61h-6.56s0,9.95,0,9.95Z"/>
      <path class="cls-3" d="M383.83,70.97c-1.39,0-2.74-.27-4.06-.8-1.32-.54-2.51-1.3-3.56-2.28-1.06-.98-1.9-2.14-2.52-3.48-.62-1.33-.93-2.8-.93-4.39s.29-2.97.87-4.3c.58-1.33,1.38-2.51,2.39-3.52,1.01-1.01,2.18-1.8,3.5-2.37,1.32-.56,2.73-.85,4.24-.85,2.03,0,3.87.49,5.52,1.46,1.65.97,2.97,2.28,3.95,3.93.98,1.65,1.48,3.52,1.48,5.61,0,1.65-.3,3.15-.91,4.5-.61,1.35-1.43,2.51-2.48,3.48-1.04.97-2.21,1.72-3.5,2.24-1.29.52-2.61.78-3.98.78ZM383.75,65.84c.96,0,1.88-.24,2.76-.72.88-.48,1.61-1.17,2.17-2.06.56-.9.85-1.96.85-3.17,0-1.13-.25-2.13-.76-3-.51-.87-1.19-1.55-2.06-2.04-.87-.49-1.87-.74-3-.74s-2.04.25-2.91.76c-.87.51-1.56,1.2-2.06,2.09-.51.88-.76,1.88-.76,2.98,0,1.22.27,2.27.83,3.15.55.88,1.27,1.56,2.15,2.04.88.48,1.82.72,2.8.72Z"/>
      <path class="cls-3" d="M405.56,70.97c-.75,0-1.55-.08-2.39-.24-.84-.16-1.65-.39-2.43-.7-.78-.3-1.46-.67-2.02-1.09-.56-.42-.92-.89-1.06-1.41-.12-.29-.16-.57-.13-.85.03-.27.12-.56.26-.87.14-.3.36-.62.65-.93.26-.32.53-.5.8-.54.27-.04.63.05,1.06.28.38.15.79.33,1.24.56.45.23.91.46,1.39.7.48.23.97.42,1.48.56.51.15,1.01.22,1.5.22,1.07,0,1.93-.18,2.56-.54.64-.36.96-.88.96-1.54,0-.38-.1-.71-.3-1-.2-.29-.47-.53-.8-.72-.33-.19-.72-.36-1.17-.52-.45-.16-.93-.3-1.43-.43-.51-.13-1.04-.28-1.59-.46-.72-.2-1.45-.45-2.17-.74-.72-.29-1.37-.67-1.93-1.13-.56-.46-1.02-1.04-1.37-1.74-.35-.7-.52-1.56-.52-2.61,0-1.3.31-2.41.93-3.32.62-.91,1.53-1.61,2.72-2.11,1.19-.49,2.62-.74,4.3-.74.58,0,1.14.04,1.67.13.54.09,1.06.21,1.56.37.51.16,1,.36,1.48.59.48.23.93.49,1.37.78.72.41,1.1.88,1.13,1.41.03.54-.17,1.11-.61,1.72-.32.41-.64.69-.96.85-.32.16-.65.17-1,.02-.46-.23-.96-.48-1.5-.76-.54-.27-1.09-.51-1.65-.72-.56-.2-1.15-.3-1.76-.3-.58,0-1.1.09-1.56.26-.46.17-.81.42-1.04.74-.23.32-.35.7-.35,1.13,0,.41.12.74.35,1,.23.26.54.48.91.65.38.17.83.33,1.35.46.52.13,1.07.25,1.65.37.81.17,1.64.39,2.48.65.84.26,1.61.62,2.32,1.09.71.46,1.28,1.08,1.72,1.85.43.77.65,1.76.65,2.98,0,2.12-.78,3.75-2.32,4.91-1.55,1.16-3.69,1.74-6.41,1.74Z"/>
      <path class="cls-3" d="M418.16,49.72l4.48.04,6-.17c.49,0,.93.05,1.33.15.39.1.7.33.93.7.23.36.35.95.35,1.76,0,.75-.12,1.32-.35,1.69-.23.38-.54.62-.91.72-.38.1-.81.15-1.3.15l-5.82-.09-4.82.04c-.72-.03-1.22-.24-1.5-.63-.28-.39-.41-1.04-.41-1.93,0-.84.17-1.46.5-1.85.33-.39.85-.59,1.54-.59ZM427.94,70.71c-1.42,0-2.64-.15-3.65-.43-1.01-.29-1.84-.74-2.48-1.35-.64-.61-1.11-1.4-1.41-2.37-.3-.97-.46-2.12-.46-3.45v-18.42c0-.52.05-.97.15-1.35.1-.38.33-.67.7-.89.36-.22.93-.33,1.72-.33.81,0,1.4.12,1.76.35.36.23.59.54.7.93.1.39.15.82.15,1.28v18.25c0,.61.05,1.1.15,1.48.1.38.26.66.48.85.22.19.51.32.87.39.36.07.8.11,1.33.11.55,0,1.02.04,1.41.13.39.09.69.3.89.63.2.33.3.88.3,1.63,0,.81-.12,1.4-.37,1.76-.25.36-.56.59-.96.67-.39.09-.82.13-1.28.13Z"/>
    </g>
  </g>
  <g>
    <path class="cls-3" d="M2.97,92.01c-.72,0-1.13-.11-1.4-.39-.92-.92-.57-2.22.14-3.04l4.2-5.51c.26-.34.26-.48.26-.49-.05-.03-.55-.27-1.87-.27-.48,0-.84.03-.86.03-.03,0-.05,0-.08,0-.33,0-.63-.2-.75-.51-.13-.33-.03-.72.25-.94,8.15-6.4,14.53-7.35,17.61-7.35,1.26,0,1.96.16,2.04.17.29.07.52.28.6.57.08.28,0,.59-.21.8l-7.54,7.51,3.94,3.78c.18.17.27.42.25.67-.03.25-.16.47-.37.6-3.35,2.12-12.95,4.36-16.2,4.36h0Z"/>
    <path class="cls-5" d="M22.33,74.51s-7.7-1.81-18.96,7.03c0,0,5.09-.49,3.19,2.02l-4.23,5.55s-.98,1.14-.18,1.93c.8.8,12.85-1.72,16.6-4.08l-4.54-4.36,8.13-8.1Z"/>
    <path class="cls-3" d="M101.39,92.04c-3.25,0-12.85-2.24-16.2-4.36-.21-.13-.35-.36-.37-.6-.03-.25.07-.49.25-.67l3.94-3.78-7.54-7.54c-.21-.21-.29-.51-.21-.8s.31-.5.6-.57c.08-.02.78-.17,2.04-.17,3.08,0,9.46.96,17.61,7.35.28.22.39.61.25.94-.12.31-.43.51-.75.51-.03,0-.05,0-.08,0-.02,0-.38-.03-.86-.03-1.26,0-1.77.23-1.88.32.02.01.06.16.27.44l4.23,5.58c.68.78,1.03,2.08.11,3-.28.28-.68.39-1.4.39h0Z"/>
    <path class="cls-5" d="M102.04,89.15l-4.23-5.58c-1.9-2.52,3.19-2.02,3.19-2.02-11.26-8.84-18.96-7.03-18.96-7.03l8.13,8.13-4.54,4.36c3.74,2.36,15.8,4.88,16.6,4.08s-.18-1.93-.18-1.93Z"/>
    <path class="cls-3" d="M52.18,99.74c-23.73-.03-37.88-16.44-38.02-16.61-.27-.33-.25-.81.05-1.11l8.59-8.41c.15-.15.36-.23.57-.23h.03c.22,0,.43.11.58.27.03.04,3.38,3.74,9.46,6.91.05-.74.23-1.45.66-1.91.32-.34.74-.52,1.22-.52.24,0,.5.05.77.14l.38.14c.33.13.66.26.91.26.25-.07.59-.19.62-.68l-.76-.27c-.69-.34-.92-.98-.63-1.56l2.61-5.01c-4.84-2.07-9.27-5.31-12.86-9.43-1.82-2.05-3.2-3.98-4.23-5.88l-.2-.21c-.16-.17-.23-.39-.22-.62,0-.07.02-.14.04-.2,0-.2.07-.38.18-.55.18-.28.48-.47.79-.51-2.79-4.85-4.18-10.03-4.05-15.2.07-3.55.67-6.66,1.78-9.25,0-.22.09-.43.25-.58.2-.32.53-.51.91-.51.24,0,.46.07.64.2.63-2.98,1.68-5.64,3.15-7.97.77-1.23,1.98-3,3.6-4.25.04-.03.33-.27.34-.27.17-.13.39-.19.61-.19.37,0,.73.19.93.51.2.3.23.66.09.98-.39,1.03-.65,2.19-.8,3.51,2.68-4.05,7.17-7.39,12.41-9.1.13-.06.28-.1.42-.1v-.03c.07-.02.23-.05.31-.05.46,0,.86.3,1.01.74s0,.97-.39,1.26c-4.1,2.76-7.2,7.42-7.94,11.91-.44,2.76-.22,4.84.7,6.72,1.41,2.91,4.16,4.71,7.55,4.95.27.02.55.03.83.03h.03c1.27-.49,2.72-1.42,2.72-3.09,0-1.93-1.38-2.81-2.67-2.81-.82,0-1.6.33-2.2.93-.15.16-.36.24-.57.24-.08,0-.16-.01-.24-.04-.29-.09-.5-.33-.56-.62-.22-1.15.2-3.49,3.22-4.46.2-.42.59-.83,1.21-.93.53-.46,1.85-1.28,4.5-1.28,3.04,0,5.32,1.2,6.79,3.57,1.17,1.89,2.1,6.94,2.13,7.16,0,.03.12.71.63,1.27,2.24-.18,5.16-.97,6.99-3.61.99-1.48,1.58-3.27,1.64-5.03.17-5.57-3.08-11.55-8.08-14.88-.41-.27-.59-.77-.45-1.25.14-.46.56-.78,1.03-.78.02,0,.14,0,.18,0,.14,0,.28.03.4.11v.02c5.31,1.68,9.87,5.07,12.59,9.2-.15-1.35-.42-2.53-.83-3.58-.12-.39-.05-.73.16-1,.22-.29.55-.46.89-.46.19,0,.51.11.65.24,1.33.95,2.66,2.47,3.88,4.5,1.45,2.34,2.49,5,3.12,7.97.19-.14.42-.22.67-.22.42,0,.79.24.96.63,1.21,2.56,1.9,5.93,1.97,9.73.08,5.24-1.31,10.43-4.07,15.23.33.05.62.25.79.54.2.34.2.74.01,1.08-1.02,2.01-2.5,4.08-4.64,6.5-3.65,4.1-7.93,7.21-12.73,9.27,0,0,2.08,3.99,2.6,5,.15.42.13.75,0,1.02-.13.26-.36.46-.65.55l-.78.28c.04.49.34.55.46.57l.17.02c.24,0,.52-.11.82-.22.2-.08.4-.15.6-.21.22-.06.43-.09.63-.09.49,0,.92.18,1.24.53.44.48.61,1.18.66,1.93,6.07-3.17,9.41-6.87,9.45-6.91.15-.16.36-.26.58-.27h.03c.21,0,.42.08.57.23l8.59,8.41c.3.3.33.78.05,1.11-.14.17-14.32,16.55-37.95,16.61h-.06ZM46.84,84.81c1.78.24,3.57.36,5.35.36,1.76,0,3.55-.12,5.31-.35-.26-.47-.42-.99-.33-1.5.07-.38.3-.91,1.01-1.3.21-.12.48-.23.76-.34.76-.28.79-.37.78-.56,0-.2-.06-.41-.15-.63l-.52.19c-.09.03-.26.07-.35.07-.51,0-.95-.36-1.05-.86l-.03-.17s-.06,0-.09,0c-.31.01-.64.04-.97.06-.32.02-.64.04-.96.06h-.01c-.1,0-.19-.01-.28-.03-.19.14-.42.22-.66.22l-1.98-.03c-.17,0-.34-.04-.48-.12-.13.06-.28.09-.43.09-.32,0-.64,0-.96.01-.34,0-.67.02-1,.02-.26,0-.49-.09-.68-.24-.08.02-.16.03-.24.03-.37-.02-1.69-.11-2-.13-.03,0-.05,0-.07-.01-.01.07-.03.14-.04.21-.13.51-.58.86-1.06.86-.13,0-.33-.05-.44-.1l-.48-.17c-.15.31-.19.55-.16.69.09.27.24.35.78.55.29.11.62.23.95.44.61.42.79.93.83,1.29.06.49-.09.96-.34,1.4ZM62.7,83.24c-.06.07-.14.15-.23.23-.24.21-.49.39-.74.56.52-.12,1.02-.25,1.5-.38-.17-.2-.35-.34-.53-.42ZM41.14,83.64c.42.12.86.23,1.31.34-.3-.21-.57-.44-.81-.7,0,0,0,0,0,0-.18.08-.34.2-.5.37ZM66.04,82.35c-.03.13-.06.29-.07.41.45-.16.88-.32,1.3-.49-.16.02-.33.03-.47.04-.28.03-.53.03-.76.04ZM37.16,82.28c.38.15.77.3,1.17.44-.02-.14-.04-.26-.06-.35-.29-.01-.59-.03-.88-.06,0,0-.08,0-.23-.03Z"/>
    <path class="cls-3" d="M52.3,21.79c-.34,0-.65-.22-.76-.54l-1.16-3.32c-.16-.05-.31-.11-.46-.18l-.27.49c-.12.22-.34.37-.58.41-.04,0-.09,0-.13,0-.2,0-.4-.08-.55-.22l-2.15-1.99c-.18-.17-.28-.42-.26-.67.02-.25.16-.48.37-.61l.62-.4c-.05-.13-.11-.26-.15-.4l-3.34-1.19c-.32-.12-.54-.42-.54-.77s.22-.65.54-.76l3.35-1.17c.03-.08.06-.16.09-.24l-.54-.3c-.22-.12-.36-.34-.4-.58-.04-.25.04-.49.21-.68l1.99-2.15c.15-.17.37-.26.6-.26.03,0,.05,0,.08,0,.25.02.48.16.61.38l.34.54c.16-.08.33-.14.51-.21l1.23-3.43c.12-.32.42-.54.76-.54h0c.35,0,.65.22.76.55l1.17,3.43c.14.05.27.1.41.16l.26-.47c.12-.22.34-.37.58-.41.04,0,.09-.01.13-.01.2,0,.4.08.55.22l2.15,1.99c.18.17.28.42.26.67s-.16.48-.37.61l-.61.39c.06.13.11.27.16.41l3.32,1.19c.32.12.54.42.54.77s-.22.65-.54.76l-3.36,1.18c-.03.07-.05.14-.08.21l.54.3c.22.12.36.33.4.58.04.25-.04.49-.2.68l-1.99,2.18c-.15.17-.37.26-.6.26-.02,0-.05,0-.07,0-.25-.02-.48-.16-.61-.38l-.36-.57c-.15.07-.3.13-.45.18l-1.2,3.36c-.12.32-.42.54-.76.54h0Z"/>
    <path class="cls-5" d="M43.75,12.42l3.72,1.33c.14.52.35,1.02.64,1.46l-.13-.12-1.2.77,2.15,1.99.66-1.19c.43.28.91.48,1.42.61l1.3,3.71,1.34-3.74c.49-.14.95-.34,1.37-.61l.76,1.22,1.99-2.18-1.2-.67-.03.03c.23-.37.4-.78.52-1.21l3.74-1.31-3.71-1.33c-.13-.51-.34-1-.62-1.43l.1.09,1.2-.77-2.15-1.99-.64,1.17c-.46-.3-.98-.52-1.53-.65h.14l-1.29-3.77-1.35,3.77h.15c-.57.14-1.1.36-1.57.68l-.75-1.2-1.99,2.15,1.2.67.03-.03c-.23.38-.41.8-.53,1.24l-3.73,1.3Z"/>
    <g>
      <path class="cls-8" d="M68.04,43.9c0-.05.01-.1.02-.16,0,.05-.01.11-.02.16Z"/>
      <path class="cls-6" d="M22.33,74.51s-7.7-1.81-18.96,7.03c0,0,5.09-.49,3.19,2.02l-4.23,5.55s-.98,1.14-.18,1.93c.8.8,12.85-1.72,16.6-4.08l-4.54-4.36,8.13-8.1Z"/>
      <path class="cls-6" d="M82.03,74.51s7.7-1.81,18.96,7.03c0,0-5.09-.49-3.19,2.02l4.23,5.58s.98,1.14.18,1.93c-.8.8-12.85-1.72-16.6-4.08l4.54-4.36-8.13-8.13Z"/>
      <path class="cls-6" d="M89.58,82.61l-8.59-8.41s-10.4,11.78-28.81,11.78c-18.41-.03-28.81-11.78-28.81-11.78l-8.59,8.41s13.77,16.29,37.34,16.32h.12c23.53-.06,37.34-16.32,37.34-16.32"/>
      <path class="cls-6" d="M44.51,78.96s-2.3,2.58.28,3.71c0,0,2.36.37.86,2.02l-1.14,1.35s.49-1.26.34-1.99c0,0-2.27-1.04-2.67-1.93,0,0-1.78-.37-2.82,2.7,0,0,.64-2.88-.52-3.53,0,0-2.58.09-3.34-.67-.61-.61-.8,2.15-.8,2.15-.46-5.92,1.35-2.42,3.28-3.04,1.93-.61.98-2.95.98-2.95l5.55,2.18Z"/>
      <path class="cls-5" d="M44.3,78.75c-.92,1.04-1.53,2.61-.4,3.71.52.49,1.47.46,1.87,1.04.37.52-1.17,1.96-1.5,2.33.15.09.31.18.46.28.18-.46.77-2.02.12-2.33-.43-.18-.83-.43-1.2-.67-.31-.18-.58-.4-.86-.61-.18-.15-.31-.49-.52-.61-.34-.21-.92.03-1.26.18-1.07.46-1.63,1.69-1.99,2.7.18.06.37.09.55.15.18-.86.25-1.78.09-2.67-.09-.49-.34-.89-.77-1.17-.21-.15-.77-.03-1.01-.06-.74-.03-1.69-.09-2.27-.58-.18-.15-.52-.28-.71-.03-.49.61-.52,1.6-.58,2.36h.55c-.03-.43-.43-3.22.43-3.22.61,0,1.23.49,1.84.52,1.96.18,2.61-1.81,1.96-3.37-.12.12-.25.25-.34.34,1.87.74,3.74,1.44,5.61,2.18.34.12.49-.43.15-.55-1.87-.74-3.74-1.44-5.61-2.18-.18-.06-.43.15-.34.34.4.98.37,2.18-.77,2.61-.64.25-1.38-.15-1.99-.37-2.02-.71-1.56,2.67-1.5,3.68.03.37.55.37.55,0,.06-.61.09-1.29.34-1.84-.09.18,2.06.61,2.24.61.37.03.77.06,1.14.06.4,0,.52.8.55,1.1.09.67,0,1.38-.15,2.06-.09.37.43.49.55.15.37-.98.89-2.06,1.93-2.42.58-.21.46-.06.77.28.52.58,1.32.98,2.02,1.35.43.21.28.06.28.43,0,.46-.18.98-.34,1.41-.09.28.31.49.46.28.64-.77,2.61-2.45,1.23-3.41-.74-.49-1.72-.4-2.06-1.44-.21-.74.37-1.69.83-2.21.28-.28-.12-.67-.37-.4"/>
      <path class="cls-6" d="M59.85,78.96s2.3,2.58-.28,3.71c0,0-2.33.37-.86,2.02l1.14,1.35s-.49-1.26-.34-1.99c0,0,2.27-1.04,2.67-1.93,0,0,1.78-.37,2.82,2.7,0,0-.64-2.88.52-3.53,0,0,2.58.09,3.34-.67.61-.61.8,2.15.8,2.15.46-5.92-1.35-2.42-3.28-3.04-1.93-.61-.98-2.95-.98-2.95l-5.55,2.18Z"/>
      <path class="cls-5" d="M59.67,79.14c.46.52.83,1.23.86,1.93.06,1.17-1.23,1.23-1.96,1.66-1.63.89.43,2.7,1.1,3.5.18.21.58,0,.46-.28-.12-.31-.21-.64-.28-.98-.12-.49-.25-.64.09-.83.71-.37,1.38-.77,1.99-1.29.46-.4.18-.58.8-.46,1.1.25,1.69,1.53,2.02,2.45.12.34.61.21.55-.15-.12-.61-.18-1.23-.15-1.84,0-.25.12-1.32.49-1.32.34,0,.67,0,1.01-.03.77-.06,1.75-.12,2.36-.64.15-.12.43,1.63.46,1.84.03.37.55.37.55,0,.06-.98.55-4.26-1.41-3.71-.64.18-1.26.58-1.96.43-1.29-.25-1.29-1.69-.89-2.64.09-.18-.15-.43-.34-.34-1.87.74-3.74,1.44-5.61,2.18-.34.12-.18.67.15.55,1.87-.74,3.74-1.44,5.61-2.18l-.34-.34c-.61,1.5-.03,3.44,1.84,3.37.67-.03,1.23-.4,1.87-.52.92-.21.55,2.82.52,3.22h.55c-.06-.71-.06-1.72-.52-2.3-.18-.25-.46-.28-.71-.09-.61.46-1.38.55-2.15.61-.98.09-1.56-.06-1.93,1.07-.31.86-.15,1.96.06,2.85.18-.06.37-.09.55-.15-.4-1.07-.95-2.18-1.99-2.7-.31-.15-.92-.37-1.26-.18-.15.09-.28.34-.37.46-.25.25-.52.46-.83.64-.46.31-.92.55-1.41.8-.64.31-.06,1.87.12,2.33.15-.09.31-.18.46-.28-.49-.58-1.29-1.26-1.53-1.99-.21-.64,1.5-1.04,1.87-1.32,1.29-.98.52-2.76-.34-3.74-.25-.28-.64.12-.4.4"/>
      <path class="cls-5" d="M76.94,58.84c12.82-14.69,5.86-29.33,5.86-29.33.06,3.31-1.01,5.8-1.01,5.8-.06-13.22-7.3-18.28-7.3-18.28,1.35,3.31.95,8.96.95,8.96-2.55-9.69-14.3-13.25-14.3-13.25,0,0,9.85,6.53,8.47,17.3,0,0-1.04,8.28-10.52,8.28h-13.84c-9.48,0-10.52-8.28-10.52-8.28-1.38-10.77,8.47-17.3,8.47-17.3,0,0-11.72,3.56-14.3,13.28,0,0-.4-5.68.95-8.96,0,0-7.21,5.06-7.27,18.28,0,0-1.07-2.48-1.01-5.8,0,0-6.93,14.63,5.86,29.33,0,0-2.48-1.35-4.66-3.77,0,0,5.58,11.14,17.95,15.77l-3.16,6.07,8.1,2.91,1.26-6.5s.15-.55.55-.49.34.67.34.67l-.95,5.22,1.96.12.37-5.49s.03-.43.55-.37c.49.06.37.49.37.49l-.34,5.55,1.96-.03-.09-5.64s.06-.34.58-.37c.52.03.58.37.58.37l-.09,5.64,1.96.03-.34-5.55s-.12-.43.37-.49.55.37.55.37l.37,5.49,1.96-.12-.95-5.22s-.03-.67.37-.77c.4-.06.52.55.52.55l1.26,6.5,8.1-2.91-3.16-6.07c12.27-4.63,17.85-15.77,17.85-15.77-2.15,2.42-4.63,3.77-4.63,3.77"/>
      <path class="cls-6" d="M77.19,58.87c4.91-5.68,7.95-12.7,7.82-20.28-.06-3.13-.55-6.57-1.9-9.42-.12-.28-.52-.12-.52.15,0,1.87-.28,3.99-.98,5.64.18.06.34.09.52.15-.06-4.97-1.07-9.97-3.71-14.23-.95-1.56-2.21-3.22-3.71-4.29-.18-.15-.49.09-.43.31,1.07,2.76,1.14,5.98.92,8.9.18-.03.37-.06.55-.06-1.81-6.6-8.13-11.54-14.48-13.47-.31-.09-.49.34-.21.52,5.06,3.37,8.62,9.51,8.44,15.58-.06,1.84-.64,3.77-1.78,5.46-1.99,2.88-5.37,4.02-8.74,4.02h-7.82c-2.3,0-4.66.12-6.96-.03-3.59-.25-6.66-2.18-8.22-5.4-1.14-2.33-1.17-4.69-.77-7.21.8-4.88,4.14-9.66,8.25-12.42.25-.18.09-.61-.21-.52-6.38,1.96-12.7,6.87-14.48,13.47.18.03.37.06.55.06-.21-2.91-.12-6.14.92-8.9.09-.21-.21-.46-.43-.31-1.53,1.07-2.73,2.73-3.71,4.29-2.67,4.23-3.68,9.3-3.71,14.23.18-.06.34-.09.52-.15-.71-1.66-.98-3.77-.98-5.64,0-.28-.4-.4-.52-.15-1.35,2.88-1.84,6.26-1.9,9.42-.18,7.55,2.95,14.6,7.82,20.28.12-.15.21-.31.34-.46-1.72-.95-3.28-2.27-4.6-3.74-.21-.25-.58.06-.46.34,1.14,2.24,2.73,4.33,4.39,6.2,3.71,4.26,8.41,7.67,13.71,9.69-.06-.15-.12-.28-.18-.43l-3.16,6.07c-.09.18,0,.34.18.43,2.7.98,5.4,1.93,8.1,2.91.12.06.31-.06.34-.18.4-2.12.83-4.39,1.26-6.5.06-.34.43-.28.37.06-.12.58-.25,1.44-.37,2.02-.18,1.07-.4,2.12-.58,3.19-.03.18.09.34.28.37.64.03,1.32.09,1.96.12.15,0,.28-.12.28-.28l.09-2.85c.03-.61.09-1.66.15-2.27.03-.21.09-.58.28-.55.25.03.21.37.21.58,0-.09-.09,1.47-.15,2.33-.06.98-.15,1.99-.21,2.98,0,.15.12.28.28.28.64,0,1.32-.03,1.96-.03.15,0,.28-.12.28-.28-.03-1.87-.12-3.47-.12-5.34,0-.64.58-.64.58.03v.49c0,.67-.03,1.35-.03,2.02-.03.95-.03,1.87-.06,2.82,0,.15.12.28.28.28l1.96.03c.15,0,.31-.12.28-.28-.12-1.84-.25-3.71-.34-5.55-.03-.34.34-.37.34,0,0,.15.03.28.03.43.03.64.09,1.26.12,1.9.06,1.01.12,2.02.21,3.04,0,.15.12.31.28.28.64-.03,1.29-.09,1.96-.12.18,0,.31-.18.28-.37-.18-1.01-.37-1.99-.55-3.01l-.43-2.3c-.06-.31.12-.34.12-.34.03-.03.21,0,.25.25.4,2.12.86,4.48,1.26,6.6.03.15.21.25.34.18,2.7-.95,5.4-1.93,8.1-2.91.18-.06.25-.25.18-.43-1.04-2.02-2.12-4.05-3.16-6.07-.06.15-.12.28-.18.43,5.25-2.02,9.85-5.34,13.59-9.54,1.72-1.93,3.37-4.05,4.54-6.35.15-.28-.21-.58-.46-.34-1.32,1.44-2.85,2.79-4.6,3.74-.31.18-.03.67.28.49,1.78-.98,3.37-2.33,4.72-3.83-.15-.12-.31-.21-.46-.34-1.07,2.15-2.61,4.11-4.14,5.92-3.68,4.26-8.34,7.7-13.62,9.73-.18.06-.25.25-.18.43,1.04,2.02,2.12,4.05,3.16,6.07.06-.15.12-.28.18-.43-2.7.98-5.4,1.93-8.1,2.91.12.06.25.12.34.18-.25-1.29-.49-2.55-.74-3.83-.15-.74-.31-1.38-.46-2.12-.06-.31-.21-.92-.37-1.1-.37-.37-.92-.21-1.04.25-.09.31-.03.71.03,1.07.18,1.26.58,3.41.83,4.82.09-.12.18-.25.28-.37-.64.03-1.32.09-1.96.12l.28.28c-.09-1.29-.28-4.14-.4-5.4-.06-.8-.58-.8-.77-.8-.31.03-.64.25-.61.8.03,1.32.21,4.26.28,5.58l.28-.28-1.96-.03.28.28c.03-1.26.03-4.11,0-5.37,0-.52-.25-.98-.74-.98-.58,0-.77.46-.77.98-.03,1.32-.03,4.02,0,5.34l.28-.28c-.64,0-1.29.03-1.96.03l.28.28.28-5.58c0-.77-.43-.89-.61-.89-.37,0-.74.15-.77.8-.12,1.35-.31,4.14-.4,5.49l.28-.28c-.64-.03-1.29-.09-1.96-.12.09.12.18.25.28.37.25-1.38.37-2.12.61-3.47.06-.4.25-1.32.31-1.75.06-.58-.12-.86-.52-.95-.06,0-.71-.09-.89.67-.28,1.35-1.01,5.09-1.26,6.44.12-.06.25-.12.34-.18-2.7-.98-5.4-1.93-8.1-2.91.06.15.12.28.18.43l3.16-6.07c.09-.18,0-.34-.18-.43-5.25-1.99-9.79-5.37-13.47-9.57-1.63-1.84-3.19-3.9-4.29-6.07l-.43.34c1.35,1.47,2.95,2.85,4.72,3.83.31.15.55-.21.34-.46-4.85-5.64-7.82-12.58-7.64-20.09.06-2.95.55-6.2,1.84-8.9-.18-.06-.34-.09-.52-.15,0,1.99.28,4.08,1.04,5.95.12.28.52.12.52-.15.06-4.88,1.04-9.76,3.62-13.96.92-1.47,2.09-3.07,3.53-4.08-.15-.09-.28-.21-.43-.31-1.07,2.79-1.17,6.07-.95,9.05.03.31.46.4.55.06,1.75-6.41,7.92-11.2,14.11-13.1-.06-.18-.15-.34-.21-.52-4.6,3.07-8.04,8.41-8.65,13.87-.58,5.34,2.09,10.43,7.55,11.87,2.36.61,4.97.37,7.39.37h8.93c2.85,0,5.68-.37,7.98-2.21,1.81-1.44,3.07-3.5,3.59-5.74,1.63-6.81-2.91-14.48-8.5-18.19-.06.18-.15.34-.21.52,6.2,1.9,12.33,6.69,14.11,13.1.09.31.52.25.55-.06.21-2.95.12-6.26-.95-9.05-.15.09-.28.21-.43.31,1.41,1.01,2.58,2.61,3.53,4.08,2.61,4.14,3.59,9.11,3.62,13.96,0,.25.4.43.52.15.8-1.84,1.07-3.96,1.04-5.95-.18.06-.34.09-.52.15,1.29,2.7,1.72,5.95,1.84,8.9.25,7.49-2.82,14.48-7.64,20.09-.25.31.15.71.4.43"/>
      <path class="cls-6" d="M27.21,58.77c1.96,1.75,4.11,3.31,6.32,4.76,4.54,3.01,9.51,5.46,14.79,6.75.37.09.49-.46.15-.55-5.25-1.29-10.15-3.74-14.66-6.69-2.15-1.41-4.26-2.95-6.2-4.66-.28-.25-.67.15-.4.4"/>
      <path class="cls-6" d="M28.68,25.73c-.34,2.7.12,5.61.83,8.22,1.6,6.01,5.46,11.04,10.55,14.54.31.21.58-.28.28-.49-5.12-3.53-8.84-8.56-10.37-14.6-.64-2.45-1.01-5.15-.71-7.7.03-.34-.52-.34-.58.03"/>
      <path class="cls-6" d="M22.3,34.94c.55,3.22,2.06,6.41,3.71,9.2,4.08,6.9,10.46,12.06,17.76,15.22.34.15.61-.34.28-.49-7.24-3.13-13.5-8.19-17.58-15-1.63-2.73-3.13-5.89-3.65-9.05-.03-.37-.58-.21-.52.12"/>
      <path class="cls-6" d="M76.91,58.38c-1.9,1.72-4.05,3.25-6.2,4.66-4.48,2.98-9.42,5.43-14.66,6.69-.37.09-.21.64.15.55,5.31-1.29,10.25-3.77,14.79-6.75,2.18-1.44,4.36-3.01,6.32-4.76.28-.25-.15-.64-.4-.4"/>
      <path class="cls-6" d="M75.22,25.8c.31,2.55-.09,5.25-.71,7.7-1.5,6.01-5.31,11.11-10.37,14.6-.31.21-.03.71.28.49,5.12-3.53,8.9-8.53,10.55-14.54.71-2.61,1.14-5.52.83-8.22-.06-.4-.61-.4-.58-.03"/>
      <path class="cls-6" d="M81.57,35.06c-.52,3.13-1.96,6.2-3.56,8.9-4.02,6.9-10.4,12.03-17.67,15.16-.34.15-.03.64.28.49,7.27-3.13,13.56-8.22,17.67-15.03,1.69-2.82,3.25-6.07,3.8-9.36.09-.37-.46-.52-.52-.15"/>
      <polygon class="cls-4" points="43.75 12.42 47.52 11.1 47.52 13.77 43.75 12.42"/>
      <polygon class="cls-4" points="52.31 3.83 53.59 7.6 50.96 7.6 52.31 3.83"/>
      <polygon class="cls-4" points="52.31 20.98 50.99 17.21 53.66 17.21 52.31 20.98"/>
      <polygon class="cls-7" points="46.78 9.23 48.78 7.08 49.54 8.31 47.98 9.9 46.78 9.23"/>
      <polygon class="cls-7" points="48.93 17.85 46.78 15.86 47.98 15.09 49.61 16.62 48.93 17.85"/>
      <polygon class="cls-4" points="60.8 12.51 57.03 13.83 57.03 11.16 60.8 12.51"/>
      <polygon class="cls-7" points="57.77 15.67 55.77 17.85 55.01 16.62 56.57 15 57.77 15.67"/>
      <polygon class="cls-7" points="55.62 7.08 57.77 9.08 56.57 9.84 54.94 8.31 55.62 7.08"/>
      <path class="cls-8" d="M57.28,12.45c0,2.76-2.24,5-5,5s-5-2.24-5-5,2.24-5,5-5c2.76,0,5,2.24,5,5"/>
      <polygon class="cls-3" points="45.56 38.16 48.26 47.58 50.22 40.21 51.75 53.62 52.43 53.62 54.24 40.18 56.32 47.48 58.99 37.79 55.04 37.36 51.45 36.99 47.58 37.39 45.68 37.91 45.56 38.16"/>
      <path class="cls-6" d="M60.44,38.25c-1.6-.71-1.81-2.39-1.81-2.39,0,0-.92-5.09-2.02-6.87s-2.91-3.19-6.1-3.19-4.14,1.26-4.14,1.26c-.86-.03-.92.8-.92.8-3.59.92-3.07,3.65-3.07,3.65,2.24-2.24,6.26-1.17,6.26,2.45s-5.06,4.36-5.06,4.36l2.79.31,1.87,6.5,1.87-6.81.74.03,1.38,12.58,1.75-12.55h.67l1.78,6.84,1.87-6.78,1.56-.03c.31-.03.25-.12.58-.15"/>
      <path class="cls-5" d="M49.64,27.64c0,.28-.55.52-1.23.52s-1.23-.25-1.23-.52.55-.52,1.23-.52,1.23.25,1.23.52"/>
      <g>
        <path class="cls-3" d="M31.05,85.22c-.09.18-.21.34-.31.46-.09.09-.21.15-.37.18-.12.03-.31,0-.52-.03-.21-.06-.4-.12-.61-.21-.37-.18-.64-.4-.77-.64-.15-.25-.15-.46-.03-.71.09-.21.21-.37.37-.49.15-.15.43-.31.8-.49l.09.15c-.28.15-.46.28-.58.37-.09.09-.18.18-.25.31-.09.15-.06.31.06.49.12.18.34.34.61.49s.55.21.77.21c.25,0,.4-.06.46-.21.03-.09.06-.18.09-.28v-.52l.49-.49c.03.25.03.4,0,.49-.03.15-.06.31-.18.52l-.12.4ZM31.17,83.13l-.52.34-.4-.55.52-.34.4.55Z"/>
        <path class="cls-3" d="M32.12,85.83l-.34-.15c-.18-.09-.28-.21-.31-.4-.03-.18.06-.49.21-.86l.31-.61c.06-.15.09-.28.09-.37,0-.06-.03-.12-.06-.25l.52-.43c.03.15.06.31.03.43-.03.15-.09.34-.18.55l-.21.43c-.15.31-.21.52-.25.67,0,.12.03.18.09.21l.34.15-.25.61Z"/>
        <path class="cls-3" d="M33.44,86.42l-1.5-.64.28-.61,1.26.55c.03-.12.03-.21.03-.31,0-.06-.03-.15-.09-.28l.43-.43c.06.18.09.34.06.49-.03.15-.09.37-.21.64l-.25.58ZM34.45,84.02l-.46.34-.28-.34-.34.28-.34-.43.43-.31.28.31.37-.28.34.43Z"/>
        <path class="cls-3" d="M36.45,87.61c-.18-.06-.34-.15-.43-.21-.12-.06-.21-.15-.31-.25-.12.03-.21.03-.31.03s-.18-.03-.34-.09l-.4-.15c-.12-.03-.18-.09-.21-.18-.03-.09-.06-.18-.06-.34-.15.09-.28.15-.4.15s-.25,0-.37-.06l-.34-.12.25-.61.34.12c.18.06.34.09.49.03.18-.06.34-.21.43-.43l.15.09c-.03.06-.06.09-.06.15-.03.06-.06.12-.09.21-.03.09-.03.15,0,.21s.09.12.15.15l.31.12c.18.09.34.09.46.09.12-.03.21-.12.28-.28,0-.03.03-.06.06-.09.03,0,.06-.03.12-.03l.12-.03s-.03.06-.03.12c-.03.06-.03.09-.03.09-.03.09-.09.18-.15.31.06.06.12.09.18.15s.15.09.21.12c.03-.06.03-.12.03-.21v-.18s.03-.06.06-.09c0,0,.03-.03.09-.06l.31-.18v.31c0,.09-.03.18-.09.31l-.43.83Z"/>
        <path class="cls-3" d="M38.16,88.16l-1.14-.37c-.12-.03-.18-.09-.21-.15-.06-.06-.06-.18-.03-.28.03-.06.06-.15.09-.21.03-.06.06-.15.12-.21l.09.03c0,.06,0,.09.06.15.03.03.09.06.15.09l.86.28c.03-.25.03-.43-.03-.61-.03-.12-.12-.28-.21-.4l.43-.64c.15.21.25.46.28.74,0,.25-.03.55-.15.89l-.31.71Z"/>
        <path class="cls-3" d="M40.34,88.87c-.03.09-.12.21-.28.34s-.34.21-.52.28c-.21.06-.37.09-.49.06-.15-.03-.31-.12-.43-.25s-.31-.31-.58-.61l.15-.12c.12.12.21.25.31.31s.18.09.28.12c.12.03.25.03.37,0,.12-.03.34-.09.58-.18.34-.15.52-.28.58-.4.03-.06.03-.15,0-.28s-.06-.25-.12-.34l.34-.58c.09.15.12.31.15.46s0,.34-.06.52l-.28.67Z"/>
        <path class="cls-3" d="M42.7,89.24c-.06.28-.25.49-.58.71-.31.21-.58.28-.83.21-.15-.03-.28-.12-.43-.25s-.37-.34-.64-.67l.15-.12c.15.15.28.28.4.34.09.06.18.09.31.12.15.03.34.03.52,0,.21-.06.46-.15.71-.34-.06,0-.12-.03-.18-.03-.15-.03-.28-.12-.37-.25-.06-.12-.09-.28-.06-.46.06-.25.18-.46.34-.64.18-.21.37-.28.52-.25.12.03.21.15.28.34s.06.4,0,.64l-.12.64ZM42.52,88.69c0-.28-.06-.4-.18-.46-.06,0-.09,0-.15.03-.03.03-.06.06-.09.12,0,.06,0,.12.06.15.06.06.15.09.25.12l.12.03Z"/>
        <path class="cls-3" d="M44.54,89.79l-2.09-.43.12-.64,1.66.34c-.06-.09-.09-.15-.15-.25-.03-.06-.09-.12-.18-.21-.09-.09-.15-.18-.25-.28l-.09.06c-.12-.18-.18-.28-.21-.31-.06-.12-.09-.21-.06-.34.03-.15.06-.28.09-.34.06-.09.15-.15.28-.21.12-.03.21-.09.37-.12.09-.03.21-.06.37-.06.06,0,.21-.03.46-.06l-.12.55s-.09,0-.21.03c-.18.03-.31.03-.43.06-.15.03-.25.06-.25.09,0,0,.03.09.15.21.12.18.25.34.34.49.15.25.25.49.34.71l-.12.71Z"/>
        <path class="cls-3" d="M48.9,90.4l-.21-.03h-.15s-.06.03-.06.03c0,0,.03.03.12.06.09.03.12.09.12.15,0,.09-.03.18-.09.31s-.09.21-.15.31c-.06.06-.15.15-.34.21-.21.09-.43.15-.67.18-.28.06-.55.06-.8.03-.28-.03-.49-.12-.61-.25s-.18-.31-.15-.55.09-.46.18-.64c.09-.21.31-.49.58-.83l.12.12c-.18.25-.34.43-.4.58-.09.15-.12.28-.15.43s.03.28.12.37c.09.09.21.15.4.18.21.03.46.03.71,0s.43-.06.61-.12c.18-.06.28-.12.28-.15s-.03-.03-.15-.06c-.09,0-.18-.03-.25-.03-.18-.03-.31-.03-.37-.06s-.06-.06-.06-.09c0-.09.03-.18.09-.28.03-.09.09-.15.15-.21.12-.12.28-.21.46-.28.18-.09.34-.12.49-.09l.28.03-.09.67Z"/>
        <path class="cls-3" d="M51.08,90.53c-.18,0-.4-.06-.64-.15-.21-.06-.4-.15-.55-.25-.12.12-.25.21-.4.25-.06.03-.18.03-.31,0l-.52-.03.03-.64.52.03c.15,0,.28,0,.37-.03.12-.03.21-.12.28-.21.12-.18.25-.37.43-.49.15-.12.28-.15.37-.15s.18.12.31.4c.12.28.18.52.15.74l-.03.55ZM50.65,89.76s-.03-.09-.09-.18c-.09-.09-.15-.15-.21-.15s-.12.06-.18.21c.09.03.15.06.21.09.12.06.21.09.25.09,0-.03.03-.03.03-.06Z"/>
        <path class="cls-3" d="M52.52,90.56l-1.63-.06.03-.64,1.38.03c-.03-.12-.06-.21-.09-.28-.03-.03-.09-.12-.18-.21l.21-.58c.12.15.21.28.25.43s.06.37.06.67l-.03.64ZM52.46,90.99l-.31.49-.37-.21-.21.37-.49-.28.28-.46.37.18.25-.4.49.31ZM52.58,87.98l-.37.55h-.25l-.34-.55h.31l.15.31.18-.28.31-.03Z"/>
        <path class="cls-3" d="M54.79,90.62c0,.09-.06.21-.18.4-.12.15-.28.31-.43.43-.18.12-.34.21-.46.21-.15,0-.31-.03-.49-.12-.15-.06-.4-.21-.74-.4l.12-.15c.15.09.28.15.37.18s.21.06.31.06c.12,0,.25-.03.37-.09.12-.06.28-.18.49-.37.28-.25.43-.43.43-.55,0-.06-.03-.15-.09-.25-.06-.12-.15-.21-.25-.31l.15-.64c.12.12.21.25.28.4s.09.31.09.49l.03.71Z"/>
        <path class="cls-3" d="M57,90.43l-.34.03c-.06,0-.12,0-.18-.03-.09-.03-.18-.12-.28-.25-.09-.15-.18-.4-.21-.67-.12.15-.18.25-.25.31-.09.09-.18.12-.25.12h-.12l-.31-.03c-.12-.03-.21-.03-.25-.03s-.06-.03-.06-.06.06-.18.15-.43c.12-.25.18-.4.25-.43.03-.03.12-.09.21-.18.06-.03.15-.09.28-.18l.12-.09s0-.03-.03-.06v-.06c0-.06,0-.15.03-.25s.06-.21.15-.37l.34,1.5c.06.25.12.4.18.46.03.06.09.06.18.06l.34-.03.03.67ZM55.9,89.12l-.06-.28c-.06.03-.09.06-.12.06-.09.06-.15.09-.21.15-.03.03-.06.06-.09.09-.03.03-.06.06-.06.09s.03.03.09.06h.18s.09,0,.12-.03.09-.09.15-.15Z"/>
        <path class="cls-3" d="M59.02,89.7c0,.12,0,.25-.03.4-.03.18-.09.28-.18.28-.06,0-.18,0-.37-.06-.21-.06-.43-.12-.64-.21-.09.09-.25.18-.4.25-.12.06-.25.09-.4.09l-.25.03-.06-.64.25-.03c.06,0,.09-.03.15-.03.06-.03.09-.03.12-.06v-.09c-.03-.18,0-.37.03-.52.06-.18.12-.31.25-.4l-.12-.06c0-.12.03-.25.03-.31s.03-.18.06-.34c.28.15.55.31.77.55.21.21.4.4.55.61.15.18.21.37.25.55ZM57.95,89.24c0-.09-.03-.15-.06-.18-.03-.03-.06-.06-.12-.06-.09,0-.15.03-.18.09-.03.06-.06.09-.06.15s.09.12.25.18c.03-.03.06-.03.09-.06.06-.03.09-.09.09-.12ZM58.72,89.61c0-.06-.06-.12-.12-.21-.09-.09-.18-.18-.31-.25,0,.09,0,.15-.03.18,0,.03-.03.12-.09.21.25.09.4.12.49.12.03,0,.06-.03.06-.06Z"/>
        <path class="cls-3" d="M63.78,89.39l-.21.03c-.06,0-.12.03-.15.03-.03.03-.06.03-.06.06,0,0,.06.03.12.03.09,0,.15.06.15.12.03.09.03.18.03.34,0,.12-.03.25-.06.37-.03.09-.12.18-.28.34s-.37.28-.58.4c-.25.12-.49.21-.74.28-.28.06-.49.03-.67-.06-.15-.09-.28-.25-.31-.49-.06-.25-.06-.46-.03-.67.03-.25.15-.55.31-.95l.15.06c-.12.28-.18.52-.21.67-.03.15-.03.31,0,.46s.09.25.21.31.28.09.43.03c.21-.03.43-.12.67-.25.21-.09.4-.21.55-.31.15-.12.21-.18.21-.25,0-.03-.06-.03-.15,0s-.18.03-.25.06c-.18.03-.31.06-.37.06s-.09-.03-.09-.06c-.03-.09-.03-.18,0-.28,0-.09.03-.18.06-.25.09-.15.21-.28.34-.4.15-.12.31-.21.43-.25l.28-.06.21.61Z"/>
        <path class="cls-3" d="M64.49,86.51l-.15.55-.4-.09-.12.43-.52-.12.15-.52.43.09.12-.43.49.09ZM65.16,89.02l-1.6.4-.15-.64,1.35-.34c-.03-.09-.09-.18-.15-.25-.03-.03-.12-.09-.21-.15l.06-.61c.15.09.28.21.37.37.09.12.15.34.21.64l.12.58Z"/>
        <path class="cls-3" d="M67.28,88.44l-.34.09c-.06.03-.12.03-.18,0-.12-.03-.21-.06-.31-.18-.12-.15-.25-.34-.37-.61-.09.15-.15.28-.18.37-.06.09-.12.15-.18.18-.03,0-.06.03-.12.03l-.34.03c-.12,0-.21.03-.25.03s-.06-.03-.06-.03c0-.03,0-.18.06-.46.06-.25.09-.43.12-.49.03-.06.09-.12.18-.21.06-.06.12-.12.21-.25l.12-.12s-.03-.03-.03-.06-.03-.03-.03-.06c-.03-.06-.03-.12-.03-.25s.03-.21.06-.37l.64,1.38c.09.21.18.37.28.43.06.03.12.06.18.03l.34-.09.21.61ZM65.93,87.4l-.12-.28c-.06.03-.09.06-.12.09-.09.06-.15.12-.18.18-.03.03-.06.09-.06.12-.03.03-.03.06-.03.09s.03.03.09.03.12,0,.18-.03c.03,0,.06-.03.09-.06.03-.03.09-.09.15-.15Z"/>
        <path class="cls-3" d="M69.36,87.73c-.18.06-.4.09-.64.12h-.61c-.06.15-.15.31-.28.37-.06.03-.15.09-.28.12l-.49.15-.21-.61.49-.15c.15-.06.28-.09.34-.15.09-.09.15-.18.15-.31.03-.21.09-.43.21-.61.09-.15.18-.25.28-.28.09-.03.21.06.43.25.21.21.37.4.43.61l.18.49ZM68.66,87.18s-.06-.09-.15-.15c-.12-.06-.18-.09-.25-.06-.06.03-.09.12-.09.28h.46s.03-.03.03-.06Z"/>
        <path class="cls-3" d="M71.51,86.72c.09.25.09.55-.06.89-.15.34-.34.55-.55.64-.12.06-.31.06-.49.06-.18-.03-.49-.09-.92-.18l.06-.18c.21.03.4.06.52.06.09,0,.21-.03.34-.06.15-.06.31-.15.43-.31.15-.15.28-.4.4-.67-.06.03-.12.06-.15.09-.15.06-.31.06-.43,0s-.25-.18-.31-.34c-.09-.21-.12-.46-.09-.71.03-.28.12-.43.28-.49.12-.06.28,0,.43.12s.28.31.37.55l.18.52ZM71.05,86.38c-.15-.21-.28-.31-.43-.25-.06.03-.09.06-.09.09-.03.06-.03.09,0,.15s.06.09.15.09.18,0,.28-.03l.09-.06Z"/>
        <path class="cls-3" d="M73.32,86.11l-1.93.83-.25-.61,1.56-.67c-.09-.03-.18-.09-.28-.09-.06-.03-.15-.03-.25-.06-.12-.03-.25-.06-.37-.09l-.03.12c-.18-.06-.31-.12-.37-.12-.12-.06-.18-.12-.25-.25-.06-.15-.09-.25-.09-.34s.03-.21.09-.31.15-.18.21-.28c.06-.06.15-.15.28-.28.06-.06.15-.15.34-.31l.21.52s-.06.06-.18.15c-.12.12-.25.21-.31.28-.12.12-.15.18-.15.21,0,0,.09.06.25.09.21.06.4.15.55.21.25.12.49.25.67.4l.28.58Z"/>
        <path class="cls-3" d="M75.84,84.94l-2.7,1.29-.28-.58,1.69-.8c-.28-.09-.52-.12-.71-.15-.18,0-.34.03-.46.09-.03.03-.09.03-.12.06-.03.03-.09.06-.12.09,0-.21.03-.4.09-.55s.15-.25.31-.31c.09-.06.21-.06.34-.06s.28.03.43.06c.12.03.34.09.58.18.18.06.31.09.4.12.09,0,.18,0,.34-.03l.21.58Z"/>
      </g>
      <g>
        <path class="cls-3" d="M36.84,93.53c-.09.21-.15.37-.25.49s-.21.18-.34.21-.31.06-.52.03-.43-.06-.61-.15c-.4-.15-.67-.34-.83-.55-.15-.21-.18-.46-.09-.71.09-.21.18-.4.31-.52.15-.15.4-.37.74-.58l.12.15c-.25.18-.43.34-.52.43-.09.09-.15.21-.21.34-.06.15-.03.34.12.49.15.18.37.31.67.43.31.12.55.15.8.12.25-.03.4-.12.46-.28.03-.09.06-.18.06-.31,0-.09-.03-.28-.06-.52l.46-.52c.03.25.06.4.06.49,0,.15-.03.34-.12.52l-.25.43ZM36.72,91.45l-.49.4-.46-.49.49-.4.46.49Z"/>
        <path class="cls-3" d="M37.89,93.99l-.34-.12c-.18-.06-.31-.18-.34-.37s0-.49.12-.86l.21-.64c.06-.15.06-.28.06-.37,0-.06-.03-.12-.09-.21l.46-.49c.06.15.09.31.09.43,0,.15-.03.34-.12.55l-.15.46c-.12.31-.15.55-.15.67s.03.18.12.21l.34.12-.21.61Z"/>
        <path class="cls-3" d="M39.27,94.42l-1.56-.49.18-.61,1.32.4c0-.12,0-.21-.03-.31,0-.06-.06-.12-.12-.28l.37-.49c.09.18.12.34.12.49s-.03.37-.12.64l-.15.64ZM39.97,91.94l-.43.4-.31-.31-.31.31-.4-.37.4-.37.31.28.34-.31.4.37Z"/>
        <path class="cls-3" d="M42.37,95.25c-.18-.06-.34-.09-.46-.15s-.25-.12-.34-.21c-.12.03-.21.06-.31.06s-.21-.03-.37-.06l-.4-.12c-.12-.03-.18-.09-.25-.15-.06-.06-.09-.18-.09-.31-.12.09-.25.18-.4.18-.12.03-.25.03-.37-.03l-.37-.09.15-.64.37.09c.18.06.34.03.49-.03.18-.09.31-.25.37-.49l.15.06c-.03.06-.03.09-.06.15s-.03.12-.06.21c-.03.09,0,.15.03.21s.09.12.18.12l.31.09c.21.06.37.06.46.03.12-.03.21-.15.25-.31,0-.03.03-.06.06-.09.03,0,.06-.03.12-.06l.12-.03s0,.06-.03.12c0,.06-.03.09-.03.09-.03.09-.06.18-.12.34.06.03.12.09.18.12.06.03.15.09.25.12v-.21c-.03-.09-.03-.15-.03-.18s.03-.06.03-.09c0,0,.03-.03.06-.06l.28-.21c.03.12.03.21.03.31s-.03.18-.06.31l-.15.92Z"/>
        <path class="cls-3" d="M44.05,95.59l-1.17-.25c-.12-.03-.18-.06-.25-.12-.06-.06-.09-.15-.06-.28,0-.06.03-.15.06-.21.03-.09.06-.15.09-.25l.09.03c0,.06.03.09.06.15.03.03.09.06.15.06l.89.18c0-.25-.03-.43-.09-.61-.06-.12-.15-.25-.28-.37l.34-.71c.18.21.31.43.34.71.03.25.03.55-.06.92l-.12.74Z"/>
        <path class="cls-3" d="M46.17,96.02c-.03.09-.09.21-.25.37s-.31.25-.49.34c-.21.09-.37.15-.49.12-.15-.03-.31-.09-.46-.21-.15-.09-.34-.28-.64-.52l.12-.12c.15.12.25.21.34.25.09.06.18.09.31.09.12.03.25,0,.37-.03s.31-.12.55-.28c.34-.18.49-.34.52-.46,0-.06,0-.15-.03-.28s-.09-.25-.18-.34l.25-.61c.09.12.15.28.21.43.03.15.03.34,0,.52l-.12.74Z"/>
        <path class="cls-3" d="M48.47,96.08c-.03.28-.18.52-.49.77-.28.25-.55.34-.8.31-.15-.03-.31-.09-.46-.18-.15-.09-.4-.31-.74-.61l.12-.12c.18.15.31.25.43.28.09.03.21.06.34.09.15.03.34,0,.52-.06.21-.09.43-.21.67-.43h-.18c-.18-.03-.31-.09-.4-.21-.09-.12-.12-.28-.09-.43.03-.25.12-.46.28-.67s.34-.34.49-.31.25.12.31.31.09.4.06.64l-.06.64ZM48.23,95.56c-.03-.28-.09-.4-.25-.43-.06,0-.09,0-.12.03-.03.03-.06.06-.06.12s.03.12.09.15c.06.06.15.06.28.09l.06.03Z"/>
        <path class="cls-3" d="M50.34,96.39l-2.12-.18.06-.64,1.69.12c-.06-.09-.12-.15-.18-.21-.06-.06-.12-.12-.18-.18-.09-.09-.18-.15-.28-.25l-.09.09c-.15-.15-.21-.25-.25-.28-.09-.09-.12-.21-.09-.34,0-.15.03-.28.06-.34.03-.09.12-.15.25-.25.09-.06.21-.09.34-.15.09-.03.21-.06.37-.12.06-.03.21-.06.46-.12l-.06.58s-.09,0-.21.03c-.18.03-.31.06-.43.09-.15.03-.21.09-.21.09,0,0,.06.09.18.21.15.15.28.31.4.46.18.21.31.43.4.64l-.09.74Z"/>
        <path class="cls-3" d="M53.04,96.48h-.34c-.31,0-.61,0-.86.06-.25.03-.37.09-.37.15.06.18.12.37.15.55.06.18.06.34.06.49,0,.12-.03.18-.03.28-.03.06-.06.15-.12.21,0-.21-.06-.43-.12-.67-.03-.09-.06-.25-.15-.52-.06-.15-.09-.28-.06-.34,0-.06.03-.18.06-.28.03-.09.09-.18.12-.25.06-.09.15-.15.31-.18s.34-.06.64-.09c-.12-.18-.25-.28-.37-.28-.03,0-.09,0-.12.03-.03.03-.12.09-.21.21l-.12-.06c.09-.25.18-.43.31-.55s.25-.18.37-.18.25.06.4.18.31.34.49.58l-.03.64Z"/>
        <path class="cls-3" d="M54.45,96.48l-1.63.03v-.64l1.38-.03c-.03-.12-.06-.21-.12-.28-.03-.03-.09-.12-.18-.21l.21-.58c.12.12.21.28.28.43s.06.37.09.67l-.03.61ZM54.42,96.88l-.28.49-.37-.18-.21.4-.49-.25.28-.46.4.18.21-.4.46.21Z"/>
        <path class="cls-3" d="M55.68,96.42l-1.41.06-.03-.64,1.14-.03-.37-1.63-.18-.09c0-.09,0-.18.03-.28.03-.12.09-.28.18-.46l.12.06v.09c0,.06.03.09.12.15.06.03.18.09.31.12,0,.09-.03.21-.06.31-.03.09-.06.18-.09.28l-.09-.03.34,1.47v.61Z"/>
        <path class="cls-3" d="M57.31,96.29l-1.81.12-.06-.64,1.56-.12c0-.15-.03-.25-.03-.31-.03-.09-.06-.15-.09-.25-.06.09-.12.18-.21.25-.09.06-.18.09-.31.09-.15,0-.25-.03-.37-.09-.09-.09-.15-.18-.15-.31,0-.18.03-.43.15-.67.12-.31.25-.46.4-.46.18,0,.37.12.55.4.18.28.28.58.31.92l.06,1.07ZM56.82,93.1l-.25.52-.4-.15-.18.4-.49-.21.25-.49.4.15.18-.4.49.18ZM56.63,94.73c-.06-.06-.09-.12-.12-.15-.03-.03-.09-.03-.12-.03-.06,0-.09.03-.12.06-.03.06-.06.09-.06.15,0,.03.03.06.06.09.03.03.06.03.12.03.03,0,.09-.03.12-.03,0-.03.06-.09.12-.12Z"/>
        <path class="cls-3" d="M58.07,95.53c0,.15,0,.28-.03.4-.03.12-.09.28-.15.49l-.15-.03c.03-.21.03-.37,0-.52,0-.09-.03-.25-.06-.43-.03-.18-.06-.37-.12-.55-.03-.18-.12-.4-.18-.64-.03-.09-.06-.15-.06-.18,0-.06,0-.12.06-.28.03-.12.09-.28.18-.46l.25.83c.09.31.15.58.21.83,0,.18.03.37.06.55ZM58.23,97.03c0,.06-.03.09-.06.12t-.09.06l-.55.21c.03-.06.06-.09.09-.12s.06-.06.12-.09c-.06-.03-.09-.06-.12-.06-.03-.03-.03-.06-.03-.06v-.06s.03-.06.06-.09c.09-.15.21-.25.31-.25.03,0,.06,0,.09.03s.03.03.03.06v.06s-.03.06-.03.09c-.09-.03-.15-.03-.18-.03s-.06,0-.09.03c-.03,0-.03.03-.06.03,0,.03.06.06.12.09.09.03.15.06.18.06.03-.03.09-.06.21-.09Z"/>
        <path class="cls-3" d="M60.19,92.52l-.21.49-.4-.12-.15.4-.52-.18.21-.46.4.12.18-.4.49.15ZM61.26,95.77l-.34.06h-.18c-.09-.03-.21-.09-.31-.21-.12-.15-.21-.37-.28-.67-.09.15-.18.25-.25.34-.09.09-.15.15-.21.15h-.46c-.15,0-.21,0-.25-.03-.03,0-.06-.03-.06-.06s.03-.18.12-.43.15-.4.18-.46.09-.12.21-.21c.06-.06.15-.12.25-.21l.12-.09s-.03-.03-.03-.06v-.31c0-.09.06-.21.12-.37l.46,1.44c.06.21.15.37.21.46.06.06.12.06.18.06l.34-.06.15.67ZM60.07,94.58l-.09-.28c-.06.03-.09.06-.12.09-.09.06-.15.12-.21.15-.03.03-.06.06-.09.09-.03.03-.03.06-.03.09s.03.03.09.03h.18s.06-.03.12-.06c.03,0,.09-.06.15-.12Z"/>
        <path class="cls-3" d="M63.44,95.34c-.18.03-.4.03-.64.03-.21,0-.43-.03-.61-.09-.06.15-.18.28-.31.34-.06.03-.15.06-.28.09l-.52.09-.12-.64.52-.09c.15-.03.28-.06.37-.12.12-.06.18-.15.18-.28.06-.21.15-.4.28-.58.12-.15.21-.21.31-.25.09-.03.21.09.4.31.18.25.31.46.34.67l.09.52ZM62.8,94.73s-.06-.09-.15-.15c-.09-.09-.18-.12-.25-.09-.06,0-.12.09-.12.25.09,0,.15.03.21.03.15.03.25.03.25.03.06-.03.09-.03.06-.06Z"/>
        <path class="cls-3" d="M65.59,94.64c.06.28,0,.55-.18.89s-.4.52-.64.58c-.15.03-.31.03-.49,0s-.49-.15-.89-.31l.06-.15c.21.06.37.09.49.12.09,0,.21,0,.34-.03.15-.03.31-.12.46-.25.15-.15.31-.37.46-.64-.06.03-.12.06-.18.06-.15.03-.31.03-.43-.06-.12-.09-.21-.21-.25-.37-.06-.25-.06-.49,0-.74.06-.28.18-.43.34-.46.12-.03.28.03.4.18.12.15.25.34.31.58l.21.58ZM65.19,94.24c-.12-.25-.25-.34-.37-.31-.06,0-.09.03-.12.09s-.03.09-.03.12c0,.06.06.09.12.12s.18.03.28,0l.12-.03Z"/>
        <path class="cls-3" d="M67.46,94.27l-2.02.58-.18-.64,1.63-.49c-.09-.06-.15-.09-.25-.12-.06-.03-.15-.06-.25-.09-.12-.03-.21-.09-.34-.12l-.06.09c-.18-.09-.31-.15-.34-.18-.12-.06-.18-.15-.21-.28-.03-.15-.06-.28-.06-.34,0-.09.06-.21.15-.31s.15-.18.28-.28c.06-.06.18-.15.31-.25.06-.03.18-.12.37-.28l.15.55s-.06.03-.18.12c-.15.09-.28.18-.37.25-.12.09-.18.15-.18.18,0,0,.09.06.25.12.21.09.37.18.52.28.25.15.46.31.61.46l.18.74Z"/>
        <path class="cls-3" d="M70.1,93.38l-2.82.98-.21-.61,1.75-.61c-.28-.12-.49-.18-.71-.21-.18-.03-.34,0-.49.03-.03,0-.09.03-.12.06-.03.03-.09.03-.15.09.03-.21.06-.4.15-.52.09-.12.18-.21.34-.28.12-.03.21-.06.34-.03.12,0,.25.06.43.12.12.06.31.12.55.25.15.09.28.12.37.15s.18,0,.34,0l.25.58Z"/>
      </g>
      <g>
        <path class="cls-5" d="M9.14,87.64l-.25.34-1.81-1.32c0,.12,0,.28-.03.46s-.06.34-.09.46l-.28-.18c.06-.25.09-.46.06-.67,0-.21-.03-.4-.09-.52l.15-.21,2.33,1.66Z"/>
        <path class="cls-5" d="M9.39,86.11l.21-.34c.15.06.28.09.4.06.12-.03.21-.12.31-.25.06-.09.12-.21.12-.31s0-.21-.03-.31-.09-.21-.18-.31c-.09-.12-.18-.21-.31-.31,0,0-.03-.03-.06-.03.03.12.06.28.03.43s-.09.31-.18.43c-.15.21-.37.37-.61.43-.25.06-.49,0-.71-.15-.25-.18-.37-.4-.4-.64-.03-.28.03-.52.21-.77.12-.18.28-.31.46-.4s.37-.12.58-.09c.21.03.46.15.74.37.31.21.49.43.61.61.12.21.18.4.15.61,0,.21-.09.43-.21.61-.15.21-.31.34-.52.4-.21.09-.4.06-.61-.06ZM9.33,84.02c-.15-.12-.34-.15-.49-.12s-.31.12-.4.28-.15.31-.12.49.12.34.28.46c.15.09.31.15.46.09.15-.03.31-.12.4-.28s.15-.31.12-.49c0-.18-.09-.31-.25-.43Z"/>
        <path class="cls-5" d="M11.01,83.81l.21-.34c.15.06.28.09.4.06.12-.03.21-.12.31-.25.06-.09.12-.21.12-.31s0-.21-.03-.31-.09-.21-.18-.31c-.09-.12-.18-.21-.31-.31,0,0-.03-.03-.06-.03.03.12.06.28.03.43s-.09.31-.18.43c-.15.21-.37.37-.61.43-.25.06-.49,0-.71-.15-.25-.18-.37-.4-.4-.64-.03-.28.03-.52.21-.77.12-.18.28-.31.46-.4s.37-.12.58-.09c.21.03.46.15.74.37.31.21.49.43.61.61.12.21.18.4.15.61,0,.21-.09.43-.21.61-.15.21-.31.34-.52.4-.21.06-.4.03-.61-.06ZM10.95,81.69c-.15-.12-.34-.15-.49-.12s-.31.12-.4.28-.15.31-.12.49c.03.18.12.34.28.46.15.09.31.15.46.09.15-.03.31-.12.4-.28s.15-.31.12-.49c0-.15-.09-.31-.25-.43Z"/>
        <path class="cls-5" d="M14.08,79.97l.28.18-1.26,1.78c-.06-.06-.12-.12-.18-.18-.06-.12-.12-.28-.15-.43-.03-.18-.06-.4-.06-.67,0-.43-.03-.77-.06-.95-.06-.18-.12-.34-.25-.4-.12-.09-.25-.09-.37-.06-.15.03-.28.12-.37.28-.12.15-.15.31-.15.46.03.15.09.28.25.4l-.28.31c-.21-.18-.31-.4-.31-.61,0-.25.09-.49.25-.74.18-.25.4-.43.61-.49.21-.06.43-.03.61.09.09.06.15.15.21.28s.09.25.12.43c.03.18.03.43.06.8,0,.31,0,.49.03.58,0,.09.03.18.06.25l.95-1.29Z"/>
      </g>
      <g>
        <path class="cls-5" d="M90.56,80.62c-.12.09-.28.18-.46.25-.03.03-.21.09-.49.21l-.06-.09s.12-.09.31-.18c.31-.18.55-.43.74-.71.15-.21.28-.43.37-.67.06-.12.09-.28.15-.49l.61-.06c-.06.21-.09.4-.18.55-.09.21-.21.43-.34.58-.18.25-.4.46-.64.61Z"/>
        <path class="cls-5" d="M91.91,83.69l-.55.15c-.03-.21.06-.43.21-.61.15-.15.43-.37.86-.64-.09-.09-.18-.15-.21-.21s-.09-.09-.12-.15c-.12-.18-.18-.34-.18-.49s.06-.28.18-.34c.09-.06.21-.09.37-.15.21-.06.4-.06.55,0,.21.06.37.15.49.34.09.12.09.28.03.43-.06.12-.18.25-.37.4-.12.09-.28.21-.52.37-.31.25-.49.43-.58.58-.09.09-.12.18-.15.34ZM92.8,82.3c.12-.09.21-.18.25-.25.06-.12.03-.25-.03-.37-.06-.09-.15-.18-.28-.21-.12-.06-.21-.06-.28-.03s-.09.12-.06.21c.03.09.06.21.15.34.03.06.06.09.12.18.06.03.09.09.12.12Z"/>
        <path class="cls-5" d="M93.41,86.05l-.55.15c-.03-.21.06-.43.21-.61.15-.15.43-.37.86-.64-.09-.09-.18-.15-.21-.21s-.09-.09-.12-.15c-.12-.18-.18-.34-.18-.49s.06-.28.18-.34c.09-.06.21-.09.37-.15.21-.06.4-.06.55,0,.21.06.37.15.49.34.09.12.09.28.03.43-.06.12-.18.25-.37.4-.12.09-.28.21-.52.37-.31.25-.49.46-.58.58-.06.06-.12.18-.15.34ZM94.3,84.67c.12-.09.21-.18.25-.25.06-.12.03-.25-.03-.37-.06-.09-.15-.18-.28-.21-.12-.06-.21-.06-.28-.03-.06.03-.09.12-.06.21.03.09.06.21.15.34.03.06.06.09.12.18.06.03.09.06.12.12Z"/>
        <path class="cls-5" d="M96.54,87.15c-.15.09-.31.15-.46.12s-.31-.12-.4-.31c0-.03-.03-.09-.09-.18-.06.12-.12.25-.18.31-.09.12-.18.25-.34.37-.12.12-.34.28-.58.43-.03.03-.12.06-.21.15-.09.06-.15.09-.15.09l-.06-.06c.37-.43.61-.71.71-.83.18-.25.34-.46.43-.67s.21-.52.31-.89l.52-.12c-.06.18-.09.37-.12.49-.03.25.03.43.15.61s.25.28.4.28c.09,0,.21-.03.37-.12l.06.09s-.09.09-.15.12c-.03.03-.12.09-.18.12Z"/>
      </g>
    </g>
  </g>
</svg>